<?xml version="1.0" encoding="iso-8859-1"?>
<!-- Generator: Adobe Illustrator 19.0.0, SVG Export Plug-In . SVG Version: 6.00 Build 0)  -->
<svg version="1.1" id="Capa_1" xmlns="http://www.w3.org/2000/svg" xmlns:xlink="http://www.w3.org/1999/xlink" x="0px" y="0px"
	 viewBox="0 0 512 512" style="enable-background:new 0 0 512 512;" xml:space="preserve">
<g>
	<g>
		<path d="M437.663,248.5h-38.95c-3.785-72.846-62.371-131.432-135.217-135.217v-38.95c0-4.142-3.358-7.5-7.5-7.5
			c-4.142,0-7.5,3.358-7.5,7.5v38.95c-72.846,3.785-131.432,62.371-135.217,135.217h-38.95c-4.142,0-7.5,3.358-7.5,7.5
			c0,4.142,3.358,7.5,7.5,7.5h38.95c3.785,72.846,62.371,131.432,135.217,135.217v38.95c0,4.142,3.358,7.5,7.5,7.5
			c4.142,0,7.5-3.358,7.5-7.5v-38.95c72.846-3.785,131.432-62.371,135.217-135.217h38.95c4.142,0,7.5-3.358,7.5-7.5
			C445.163,251.858,441.805,248.5,437.663,248.5z M248.495,128.313V248.5H128.308C132.06,183.929,183.924,132.065,248.495,128.313z
			 M248.496,383.687c-64.571-3.752-116.435-55.616-120.187-120.187h120.187V383.687z M263.496,383.687V263.5h120.187
			C379.931,328.071,328.067,379.935,263.496,383.687z M263.496,248.5V128.313c64.571,3.752,116.435,55.616,120.187,120.187H263.496z
			"/>
	</g>
</g>
<g>
	<g>
		<path d="M511.362,237.85c-4.52-64.499-33.089-124.436-80.445-168.77C383.334,24.533,321.212,0,255.996,0
			C190.799,0,128.691,24.521,81.112,69.045C33.763,113.355,5.183,173.265,0.637,237.74c-0.291,4.132,2.823,7.718,6.954,8.009
			c4.13,0.294,7.718-2.822,8.009-6.954c4.279-60.687,31.185-117.083,75.761-158.797C136.151,38.083,194.619,15,255.996,15
			c61.395,0,119.876,23.095,164.67,65.031c44.583,41.738,71.479,98.158,75.733,158.868c0.277,3.954,3.571,6.976,7.474,6.976
			c0.176,0,0.354-0.006,0.532-0.019C508.537,245.566,511.652,241.982,511.362,237.85z"/>
	</g>
</g>
<g>
	<g>
		<path d="M504.405,266.136c-4.132-0.297-7.716,2.825-8.005,6.958c-4.252,60.711-31.147,117.134-75.731,158.874
			C375.874,473.904,317.392,497,255.996,497c-61.354,0-119.807-23.068-164.59-64.956c-44.569-41.687-71.487-98.051-75.797-158.71
			c-0.293-4.132-3.887-7.254-8.012-6.95c-4.132,0.293-7.244,3.881-6.95,8.012c4.578,64.445,33.171,124.322,80.512,168.602
			C128.732,487.495,190.823,512,255.996,512c65.218,0,127.34-24.534,174.925-69.083c47.356-44.335,75.924-104.274,80.442-168.775
			C511.652,270.009,508.537,266.425,504.405,266.136z"/>
	</g>
</g>
<g>
	<g>
		<path d="M417.339,94.657c-43.097-43.096-100.395-66.831-161.343-66.831S137.749,51.56,94.653,94.657S27.822,195.052,27.822,256
			s23.734,118.247,66.831,161.343s100.396,66.831,161.343,66.831c60.947,0,118.247-23.734,161.343-66.831
			C460.435,374.246,484.17,316.948,484.17,256S460.436,137.753,417.339,94.657z M255.996,469.174
			c-117.544,0-213.174-95.629-213.174-213.174S138.451,42.826,255.996,42.826S469.17,138.456,469.17,256
			S373.54,469.174,255.996,469.174z"/>
	</g>
</g>
<g>
</g>
<g>
</g>
<g>
</g>
<g>
</g>
<g>
</g>
<g>
</g>
<g>
</g>
<g>
</g>
<g>
</g>
<g>
</g>
<g>
</g>
<g>
</g>
<g>
</g>
<g>
</g>
<g>
</g>
</svg>
